<?xml version="1.0" encoding="utf-8"?>
<!-- Svg Vector Icons : http://www.sfont.cn -->
<!DOCTYPE svg PUBLIC "-//W3C//DTD SVG 1.1//EN" "http://www.w3.org/Graphics/SVG/1.1/DTD/svg11.dtd">
<svg version="1.1" xmlns="http://www.w3.org/2000/svg" xmlns:xlink="http://www.w3.org/1999/xlink" x="0px" y="0px" viewBox="0 0 1000 1000" enable-background="new 0 0 1000 1000" xml:space="preserve">
<metadata> Svg Vector Icons : http://www.sfont.cn </metadata>
<g fill="#ffffff"><path d="M577,477.2c51.7-51.7,80.2-120.4,80.2-193.5c0-73.1-28.5-141.8-80.2-193.5C525.3,38.5,456.6,10,383.4,10c-73.1,0-141.8,28.5-193.5,80.2c-51.7,51.7-80.2,120.4-80.2,193.5c0,73.1,28.5,141.8,80.2,193.5c51.7,51.7,120.4,80.2,193.5,80.2C456.6,557.4,525.3,528.9,577,477.2z M169.9,283.7c0-117.7,95.8-213.5,213.5-213.5c117.7,0,213.5,95.8,213.5,213.5s-95.8,213.5-213.5,213.5C265.7,497.2,169.9,401.4,169.9,283.7z"/><path d="M714.5,467.3c-96.9,0-175.8,78.9-175.8,175.8c0,96.9,78.9,175.8,175.8,175.8c96.9,0,175.8-78.9,175.8-175.8C890.3,546.2,811.4,467.3,714.5,467.3z M714.5,782.8c-77,0-139.7-62.7-139.7-139.7c0-77,62.7-139.7,139.7-139.7c77,0,139.7,62.7,139.7,139.7C854.1,720.1,791.5,782.8,714.5,782.8z"/><path d="M506.8,707.2c0-61.3-49.9-111.2-111.2-111.2c-61.3,0-111.2,49.9-111.2,111.2c0,61.3,49.9,111.2,111.2,111.2C456.9,818.4,506.8,768.5,506.8,707.2z M395.6,782.3c-41.4,0-75.1-33.7-75.1-75.1c0-41.4,33.7-75.1,75.1-75.1c41.4,0,75.1,33.7,75.1,75.1C470.7,748.6,437,782.3,395.6,782.3z"/><path d="M539.3,802.5c-51.7,0-93.8,42.1-93.8,93.8c0,51.7,42.1,93.8,93.8,93.8c51.7,0,93.8-42.1,93.8-93.8C633.1,844.5,591,802.5,539.3,802.5z M539.3,953.9c-31.8,0-57.6-25.9-57.6-57.6c0-31.8,25.9-57.6,57.6-57.6c31.8,0,57.6,25.9,57.6,57.6C596.9,928,571.1,953.9,539.3,953.9z"/></g>
</svg>