<?xml version="1.0" standalone="no"?><!DOCTYPE svg PUBLIC "-//W3C//DTD SVG 1.1//EN" "http://www.w3.org/Graphics/SVG/1.1/DTD/svg11.dtd"><svg t="1547458521211" class="icon" style="" viewBox="0 0 1024 1024" version="1.1" xmlns="http://www.w3.org/2000/svg" p-id="2692" xmlns:xlink="http://www.w3.org/1999/xlink" width="16" height="16"><defs><style type="text/css"></style></defs><path d="M394.3 314v396c0 17.6-14.4 32-32 32s-32-14.4-32-32V314c0-17.6 14.4-32 32-32s32 14.4 32 32zM439.8 533.7l1.8 1.8 21.8 21.8L639.1 733c12.4 12.5 32.8 12.5 45.2 0.1 12.4-12.5 12.4-32.9 0-45.3L508.6 512l175.8-175.7c12.4-12.5 12.4-32.9 0-45.3-12.5-12.4-32.9-12.4-45.3 0L463.4 466.7l-21.5 21.5-2.2 2.2c-5.2 5.7-8.3 13.2-8.3 21.5-0.1 8.4 3.1 16.1 8.4 21.8z" fill="#82e064" p-id="2693"></path></svg>