<?xml version="1.0" standalone="no"?><!DOCTYPE svg PUBLIC "-//W3C//DTD SVG 1.1//EN" "http://www.w3.org/Graphics/SVG/1.1/DTD/svg11.dtd"><svg t="1547517443218" class="icon" style="" viewBox="0 0 1024 1024" version="1.1" xmlns="http://www.w3.org/2000/svg" p-id="4585" xmlns:xlink="http://www.w3.org/1999/xlink" width="48" height="48"><defs><style type="text/css"></style></defs><path d="M481.6 253.3v517.3c0 8.2-3 15.4-9 21.4s-13.2 9-21.4 9-15.4-3-21.4-9L271.4 633.7H146.8c-8.2 0-15.4-3-21.4-9-6-6-9-13.1-9-21.4V420.7c0-8.2 3-15.4 9-21.4 6-6 13.1-9 21.4-9h124.6L429.7 232c6-6 13.1-9 21.4-9 8.2 0 15.4 3 21.4 9 6.1 5.9 9.1 13 9.1 21.3zM643.9 444.4c13.5 20.9 20.2 43.4 20.2 67.5s-6.7 46.5-20.2 67.3c-13.5 20.8-31.3 35.6-53.5 44.5-3.2 1.6-7.1 2.4-11.9 2.4-8.2 0-15.4-2.9-21.4-8.8-6-5.9-9-13.1-9-21.6 0-6.7 1.9-12.3 5.7-16.9s8.4-8.6 13.8-11.9c5.4-3.3 10.8-7 16.2-10.9 5.4-4 10-9.7 13.8-17.1 3.8-7.4 5.7-16.4 5.7-26.9s-1.9-19.4-5.7-26.9c-3.8-7.4-8.4-13.1-13.8-17.1-5.4-4-10.8-7.6-16.2-10.9s-10-7.3-13.8-11.9-5.7-10.2-5.7-16.9c0-8.6 3-15.8 9-21.6 6-5.9 13.1-8.8 21.4-8.8 4.8 0 8.7 0.8 11.9 2.4 22.2 8.5 40.1 23.2 53.5 44.1z" p-id="4586" fill="#82e064"></path></svg>