<?xml version="1.0" standalone="no"?><!DOCTYPE svg PUBLIC "-//W3C//DTD SVG 1.1//EN" "http://www.w3.org/Graphics/SVG/1.1/DTD/svg11.dtd"><svg t="1547517295167" class="icon" style="" viewBox="0 0 1024 1024" version="1.1" xmlns="http://www.w3.org/2000/svg" p-id="4070" xmlns:xlink="http://www.w3.org/1999/xlink" width="48" height="48"><defs><style type="text/css"></style></defs><path d="M481.6 253.3v517.3c0 8.2-3 15.4-9 21.4s-13.2 9-21.4 9-15.4-3-21.4-9L271.4 633.7H146.8c-8.2 0-15.4-3-21.4-9-6-6-9-13.1-9-21.4V420.7c0-8.2 3-15.4 9-21.4 6-6 13.1-9 21.4-9h124.6L429.7 232c6-6 13.1-9 21.4-9 8.2 0 15.4 3 21.4 9 6.1 5.9 9.1 13 9.1 21.3z" p-id="4071" fill="#82e064"></path></svg>